<?xml version="1.0" standalone="no"?>
<!DOCTYPE svg PUBLIC "-//W3C//DTD SVG 20010904//EN"
 "http://www.w3.org/TR/2001/REC-SVG-20010904/DTD/svg10.dtd">
<svg version="1.0" xmlns="http://www.w3.org/2000/svg"
 width="622.000000pt" height="622.000000pt" viewBox="0 0 622.000000 622.000000"
 preserveAspectRatio="xMidYMid meet">
<metadata>
Created by potrace 1.14, written by Peter Selinger 2001-2017
</metadata>
<g transform="translate(0.000000,622.000000) scale(0.100000,-0.100000)"
fill="#000000" stroke="none">
<path d="M247 5982 c-3 -6 -1 -4147 2 -4164 1 -4 138 -6 306 -5 198 1 305 -2
305 -8 0 -7 3 -7 8 0 4 6 55 10 117 10 62 0 113 -4 117 -10 5 -7 8 -7 8 0 0 6
45 10 115 10 70 0 115 -4 115 -10 0 -7 3 -7 8 0 4 6 55 10 117 10 62 0 113 -4
117 -10 5 -7 8 -7 8 0 0 6 45 10 115 10 70 0 115 -4 115 -10 0 -7 3 -7 8 0 4
6 163 10 440 10 281 0 432 -3 432 -10 0 -7 3 -7 8 0 4 6 55 10 117 10 62 0
113 -4 117 -10 5 -7 8 -7 8 0 0 6 45 10 115 10 70 0 115 -4 115 -10 0 -7 3 -7
8 0 4 6 39 10 77 10 39 0 73 -4 77 -10 5 -7 8 -7 8 0 0 6 45 10 115 10 70 0
115 -4 115 -10 0 -7 3 -7 8 0 4 6 55 10 117 10 62 0 113 -4 117 -10 5 -7 8 -7
8 0 0 7 151 10 432 10 277 0 436 -4 440 -10 5 -7 8 -7 8 0 0 6 45 10 115 10
70 0 115 -4 115 -10 0 -7 3 -7 8 0 4 6 55 10 117 10 62 0 113 -4 117 -10 5 -7
8 -7 8 0 0 6 45 10 115 10 70 0 115 -4 115 -10 0 -7 3 -7 8 0 4 6 55 10 117
10 62 0 113 -4 117 -10 5 -7 8 -7 8 0 0 6 49 9 130 8 l130 -2 0 132 c1 159 0
3969 0 4014 l0 31 -2840 0 c-1562 0 -2841 -3 -2843 -6z m5023 -794 c0 -4 6 -8
13 -8 18 0 67 -42 67 -57 0 -6 5 -13 10 -15 9 -3 22 -46 22 -73 0 -22 -14
-151 -17 -165 -2 -8 -7 -37 -10 -65 -6 -55 -9 -82 -20 -165 -4 -30 -9 -66 -10
-80 -2 -14 -4 -25 -5 -25 -1 0 -3 -16 -5 -36 -6 -72 -17 -118 -31 -130 -7 -6
-11 -15 -8 -20 3 -5 -2 -9 -11 -9 -9 0 -14 -4 -10 -9 3 -5 -4 -12 -15 -16 -11
-3 -20 -11 -20 -16 0 -5 -3 -8 -7 -7 -5 1 -26 -3 -48 -7 -48 -11 -58 -9 -110
16 -73 36 -104 117 -84 222 4 23 6 43 5 44 -1 1 -38 -31 -81 -72 -44 -41 -80
-75 -81 -75 -2 0 -41 -37 -88 -82 -46 -46 -126 -121 -176 -168 -51 -47 -120
-112 -154 -145 -35 -33 -116 -109 -180 -170 -65 -60 -150 -140 -189 -177 -39
-38 -75 -68 -79 -68 -4 0 -8 -7 -8 -15 0 -8 -4 -15 -9 -15 -4 0 -33 -24 -64
-52 -46 -44 -257 -244 -302 -285 -7 -7 -15 -9 -19 -6 -3 4 -6 1 -6 -6 0 -7 -4
-10 -9 -6 -5 3 -12 1 -15 -4 -9 -14 -98 -7 -131 11 -16 9 -50 35 -75 58 -25
23 -62 55 -82 72 -21 17 -53 44 -71 62 -77 71 -119 106 -128 106 -6 0 -7 5 -4
10 3 6 2 10 -4 10 -6 0 -21 10 -34 23 -79 74 -127 117 -130 117 -4 0 -74 62
-143 127 -19 17 -34 30 -34 28 0 -1 -30 26 -67 61 -38 35 -71 64 -75 64 -10 0
-59 50 -50 50 4 1 -5 8 -20 16 -16 8 -28 19 -28 24 0 6 -5 10 -10 10 -6 0 -22
11 -36 25 -14 14 -27 25 -30 25 -4 0 -21 -15 -39 -32 -18 -18 -90 -87 -160
-153 -70 -66 -159 -150 -197 -187 -38 -38 -71 -68 -73 -68 -2 0 -53 -49 -114
-108 -61 -60 -111 -107 -111 -105 0 2 -24 -20 -53 -49 -30 -29 -106 -102 -171
-163 -64 -60 -152 -144 -195 -185 -146 -139 -186 -175 -214 -189 -29 -15 -126
-18 -136 -4 -3 4 -13 9 -20 11 -43 9 -91 98 -86 159 6 66 19 85 155 213 73 69
159 151 191 183 33 31 65 57 71 57 6 0 9 3 6 6 -4 3 12 22 34 42 23 20 65 60
94 87 29 28 110 104 180 170 70 66 155 147 189 180 34 33 115 110 180 170 64
61 146 138 182 173 36 34 69 62 75 62 5 0 6 5 3 10 -3 6 0 13 8 16 7 2 37 27
66 54 29 28 57 48 61 45 5 -3 11 -1 14 3 7 12 105 12 112 1 3 -5 12 -9 20 -9
9 0 21 -6 28 -12 7 -7 44 -40 80 -73 37 -32 78 -68 90 -80 13 -11 44 -38 70
-60 25 -22 64 -57 86 -77 22 -21 45 -38 51 -38 5 0 7 -4 4 -10 -3 -5 -2 -10 4
-10 10 0 34 -20 123 -102 22 -21 45 -38 50 -38 5 0 6 -4 3 -10 -3 -5 -1 -10 5
-10 6 0 29 -17 52 -37 83 -76 94 -86 147 -132 29 -25 63 -55 75 -66 46 -42
139 -120 150 -127 7 -4 48 27 103 80 50 48 146 139 214 202 67 63 146 138 175
165 29 28 103 97 164 155 62 58 138 130 170 160 31 30 119 114 196 185 76 72
165 155 197 186 l59 56 -74 -1 c-64 -2 -78 1 -114 25 -81 55 -106 134 -67 216
21 45 45 70 81 85 37 15 43 16 152 24 52 3 115 8 140 10 25 2 92 6 150 9 57 3
106 7 107 9 8 7 163 2 163 -6z"/>
<path d="M2313 1360 c-11 -25 -26 -58 -33 -75 -8 -16 -14 -32 -14 -35 -1 -3
-18 -46 -40 -95 -21 -50 -44 -103 -51 -120 -7 -16 -22 -51 -34 -77 -12 -26
-21 -50 -21 -53 0 -4 -13 -36 -30 -72 -16 -35 -30 -67 -30 -70 0 -3 -9 -24
-20 -47 -26 -56 -76 -176 -85 -203 -3 -13 -11 -23 -17 -23 -6 0 -9 -3 -5 -6 3
-3 -10 -42 -29 -86 -19 -44 -32 -83 -29 -88 2 -4 25 -6 50 -5 27 1 45 -3 45
-9 0 -7 3 -8 8 -1 8 12 81 14 98 3 6 -4 14 -4 18 0 12 11 186 8 186 -3 0 -6 3
-6 8 0 8 12 171 14 189 2 6 -4 14 -4 17 1 6 9 127 9 142 0 6 -4 14 -5 18 -1
11 11 106 9 106 -2 0 -7 3 -7 8 0 9 14 155 14 164 0 5 -7 8 -7 8 1 0 11 78 13
96 2 6 -4 14 -4 18 0 12 11 236 9 236 -3 0 -6 3 -6 8 0 8 12 121 13 140 2 6
-5 12 -4 12 0 0 12 154 10 162 -2 5 -7 8 -7 8 0 0 12 119 14 138 2 6 -5 12 -4
12 0 0 12 103 10 112 -2 5 -7 8 -6 8 0 0 12 168 14 187 2 6 -4 14 -4 17 1 6
10 127 9 143 -1 6 -4 14 -3 17 1 3 5 17 8 31 7 30 -4 30 -5 6 48 -17 39 -57
133 -86 202 -28 68 -69 163 -86 201 -10 22 -27 63 -38 90 -10 27 -27 67 -37
89 -10 22 -18 42 -19 45 -2 7 -9 22 -99 235 -43 98 -79 182 -82 185 -3 3 -344
5 -758 5 l-753 0 -20 -45z"/>
</g>
</svg>
